<?xml version="1.0" encoding="iso-8859-1"?>
<!-- Uploaded to: SVG Repo, www.svgrepo.com, Generator: SVG Repo Mixer Tools -->
<svg version="1.1" id="Layer_1" xmlns="http://www.w3.org/2000/svg" xmlns:xlink="http://www.w3.org/1999/xlink" 
	 viewBox="0 0 512 512" xml:space="preserve">
<circle style="fill:#273B7A;" cx="256" cy="256" r="256"/>
<path style="fill:#121149;" d="M512,256c0-2.315-0.034-4.62-0.095-6.92L410.29,147.465L260.427,296.053l34.292,34.292
	l-192.343,35.068L248.86,511.897c2.374,0.066,4.753,0.103,7.142,0.103C397.384,512,512,397.384,512,256z"/>
<path style="fill:#D0D1D3;" d="M400.305,369.778H111.694c-6.704,0-12.14-5.435-12.14-12.14V154.36
	c0-6.704,5.435-12.138,12.14-12.138h288.611c6.704,0,12.14,5.435,12.14,12.138v203.278
	C412.444,364.342,407.009,369.778,400.305,369.778z"/>
<path style="fill:#A6A8AA;" d="M400.305,142.222h-144.45v227.556h144.449c6.704,0,12.14-5.435,12.14-12.14V154.362
	C412.444,147.658,407.009,142.222,400.305,142.222z"/>
<circle style="fill:#C92F00;" cx="116.364" cy="156.444" r="6.896"/>
<circle style="fill:#EAA22F;" cx="140.067" cy="156.444" r="6.896"/>
<circle style="fill:#386895;" cx="163.771" cy="156.444" r="6.896"/>
<path style="fill:#FFFFFF;" d="M393.051,162.478H184.458c-3.332,0-6.034-2.701-6.034-6.034l0,0c0-3.332,2.701-6.034,6.034-6.034
	h208.593c3.332,0,6.034,2.701,6.034,6.034l0,0C399.084,159.777,396.383,162.478,393.051,162.478z"/>
<path style="fill:#D0D1D3;" d="M393.051,150.411H255.857v12.067h137.194c3.332,0,6.034-2.701,6.034-6.034
	S396.383,150.411,393.051,150.411z"/>
<rect x="112.916" y="175.838" style="fill:#FFFFFF;" width="286.168" height="181.01"/>
<rect x="255.862" y="175.838" style="fill:#D0D1D3;" width="143.222" height="181.01"/>
<path style="fill:#A6A8AA;" d="M173.783,283.596v-13.791c12.073,0,21.894-9.821,21.894-21.895c0-12.074-9.821-21.895-21.894-21.895
	v-13.791c19.677,0,35.685,16.008,35.685,35.687S193.46,283.596,173.783,283.596z"/>
<path style="fill:#02B2B2;" d="M173.783,283.596c-19.678,0-35.687-16.008-35.687-35.687s16.008-35.687,35.687-35.687v13.791
	c-12.074,0-21.895,9.821-21.895,21.895c0,12.074,9.821,21.895,21.895,21.895V283.596z"/>
<path style="fill:#A6A8AA;" d="M256,283.596c-19.678,0-35.687-16.008-35.687-35.687s16.008-35.687,35.687-35.687
	s35.687,16.008,35.687,35.687S275.678,283.596,256,283.596z M256,226.013c-12.074,0-21.895,9.821-21.895,21.895
	c0,12.074,9.821,21.895,21.895,21.895c12.074,0,21.895-9.821,21.895-21.895C277.895,235.834,268.074,226.013,256,226.013z"/>
<path style="fill:#808183;" d="M256,212.221c-0.048,0-0.095,0.007-0.143,0.007v13.791c0.048,0,0.095-0.007,0.143-0.007
	c12.074,0,21.895,9.821,21.895,21.895s-9.821,21.895-21.895,21.895c-0.048,0-0.095-0.007-0.143-0.007v13.791
	c0.048,0,0.095,0.007,0.143,0.007c19.678,0,35.687-16.008,35.687-35.687S275.678,212.221,256,212.221z"/>
<path style="fill:#C92F00;" d="M234.105,247.91h-13.791c0-19.678,16.008-35.687,35.687-35.687v13.791
	C243.926,226.013,234.105,235.835,234.105,247.91z"/>
<path style="fill:#E09112;" d="M338.216,283.596c-19.677,0-35.685-16.008-35.685-35.687h13.791c0,12.074,9.821,21.895,21.894,21.895
	c12.074,0,21.895-9.821,21.895-21.895c0-12.074-9.821-21.895-21.895-21.895v-13.791c19.678,0,35.687,16.008,35.687,35.687
	S357.895,283.596,338.216,283.596z"/>
<path style="fill:#808183;" d="M316.323,247.91h-13.791c0-19.678,16.008-35.687,35.685-35.687v13.791
	C326.144,226.013,316.323,235.835,316.323,247.91z"/>
<g>
	<path style="fill:#A6A8AA;" d="M286.168,307.95h-60.337c-1.427,0-2.586-1.158-2.586-2.586s1.158-2.586,2.586-2.586h60.337
		c1.427,0,2.586,1.158,2.586,2.586S287.596,307.95,286.168,307.95z"/>
	<path style="fill:#A6A8AA;" d="M286.168,325.244h-60.337c-1.427,0-2.586-1.158-2.586-2.586s1.158-2.586,2.586-2.586h60.337
		c1.427,0,2.586,1.158,2.586,2.586S287.596,325.244,286.168,325.244z"/>
</g>
<g>
	<path style="fill:#808183;" d="M286.168,302.778h-30.311v5.172h30.311c1.427,0,2.586-1.158,2.586-2.586
		S287.596,302.778,286.168,302.778z"/>
	<path style="fill:#808183;" d="M286.168,320.072h-30.311v5.172h30.311c1.427,0,2.586-1.158,2.586-2.586
		S287.596,320.072,286.168,320.072z"/>
</g>
<g>
	<path style="fill:#A6A8AA;" d="M202.559,307.95h-60.337c-1.427,0-2.586-1.158-2.586-2.586s1.158-2.586,2.586-2.586h60.337
		c1.427,0,2.586,1.158,2.586,2.586S203.986,307.95,202.559,307.95z"/>
	<path style="fill:#A6A8AA;" d="M202.559,325.244h-60.337c-1.427,0-2.586-1.158-2.586-2.586s1.158-2.586,2.586-2.586h60.337
		c1.427,0,2.586,1.158,2.586,2.586S203.986,325.244,202.559,325.244z"/>
</g>
<g>
	<path style="fill:#808183;" d="M369.764,307.95h-60.337c-1.427,0-2.586-1.158-2.586-2.586s1.158-2.586,2.586-2.586h60.337
		c1.427,0,2.586,1.158,2.586,2.586S371.191,307.95,369.764,307.95z"/>
	<path style="fill:#808183;" d="M369.764,325.244h-60.337c-1.427,0-2.586-1.158-2.586-2.586s1.158-2.586,2.586-2.586h60.337
		c1.427,0,2.586,1.158,2.586,2.586S371.191,325.244,369.764,325.244z"/>
</g>
</svg>