<?xml version="1.0" encoding="iso-8859-1"?>
<!-- Uploaded to: SVG Repo, www.svgrepo.com, Generator: SVG Repo Mixer Tools -->
<svg version="1.1" id="Layer_1" xmlns="http://www.w3.org/2000/svg" xmlns:xlink="http://www.w3.org/1999/xlink" 
	 viewBox="0 0 512 512" xml:space="preserve">
<path style="fill:#EDEDED;" d="M512,454.4c0,21.207-17.193,38.4-38.4,38.4H38.4C17.193,492.8,0,475.607,0,454.4V57.6
	c0-21.207,17.193-38.4,38.4-38.4h435.2c21.207,0,38.4,17.193,38.4,38.4V454.4z"/>
<path style="fill:#D8D8DA;" d="M473.6,19.2H256v473.6h217.6c21.207,0,38.4-17.193,38.4-38.4V57.6
	C512,36.393,494.807,19.2,473.6,19.2z"/>
<path style="fill:#88888F;" d="M0,134.4v320c0,21.207,17.193,38.4,38.4,38.4h435.2c21.207,0,38.4-17.193,38.4-38.4v-320H0z"/>
<path style="fill:#797781;" d="M256,134.4v358.4h217.6c21.207,0,38.4-17.193,38.4-38.4v-320H256z"/>
<rect x="256" y="57.6" style="fill:#C6C5CA;" width="217.6" height="38.4"/>
<circle style="fill:#E07188;" cx="57.6" cy="76.8" r="25.6"/>
<g>
	
		<rect x="236.788" y="187.545" transform="matrix(-0.9138 -0.4062 0.4062 -0.9138 362.5192 704.1714)" style="fill:#F8F8F9;" width="38.401" height="252.138"/>
	<polygon style="fill:#F8F8F9;" points="151.407,389.595 90.612,313.6 151.407,237.605 181.393,261.595 139.788,313.6 
		181.393,365.605 	"/>
</g>
<g>
	<polygon style="fill:#EDEDED;" points="360.593,389.595 330.607,365.605 372.212,313.6 330.607,261.595 360.593,237.605 
		421.388,313.6 	"/>
	<polygon style="fill:#EDEDED;" points="289.655,190.602 256,266.326 256,360.874 324.745,206.198 	"/>
</g>
</svg>